<svg enable-background="new 0 0 3425.08 885.089" height="885.089" viewBox="0 0 3425.08 885.089" width="3425.08" xmlns="http://www.w3.org/2000/svg"><path d="m1166.369 270.819h-43.085v-10.568c0-121.937 85.355-164.208 160.957-164.208 76.414 0 160.956 44.71 160.956 159.331 0 50.401-21.137 95.924-69.91 152.015l-197.537 224.362h267.447v41.459h-321.913v-41.459l221.112-252.001c42.271-47.962 57.717-88.608 57.717-124.376 0-69.097-47.148-117.059-117.872-117.872-68.285 0-117.872 47.149-117.872 122.75z" fill="#fff"/><path d="m1598.829 589.482c0 30.076 7.315 42.27 43.896 42.27h8.13v41.459h-8.13c-69.909 0-86.98-30.078-86.98-83.729v-485.31h43.084z" fill="#fff"/><path d="m2064.619 517.132c0 121.938-85.355 164.207-160.957 164.207s-160.956-42.27-160.956-164.207v-110.556c0-121.937 85.354-164.208 160.956-164.208s160.957 42.271 160.957 164.208zm-43.084-110.556c0-75.602-49.588-122.75-117.873-122.75-68.284 0-117.872 47.148-117.872 122.75v110.556c0 75.602 49.588 122.75 117.872 122.75 68.285 0 117.873-47.148 117.873-122.75z" fill="#fff"/><path d="m2449.939 610.617c-25.2 39.02-71.536 59.342-117.873 59.342-75.601 0-160.957-42.271-160.957-164.207v-99.175c0-121.937 85.356-164.208 160.957-164.208 46.336 0 92.672 20.323 117.873 59.342v-47.961h43.084v412.959c0 121.936-85.355 164.207-160.957 164.207-69.909 0-147.949-36.58-159.33-138.195h43.896c9.755 60.156 55.278 96.736 115.434 96.736 68.284 0 117.873-47.148 117.873-122.748zm-117.873-326.791c-68.283 0-117.871 47.148-117.871 122.75v99.175c0 75.6 49.588 122.75 117.871 122.75 68.285 0 117.873-47.15 117.873-122.75v-99.175c0-75.601-49.587-122.75-117.873-122.75z" fill="#fff"/><path d="m2631.208 604.927h68.284v68.283h-68.284z" fill="#fff"/><path d="m2880.766 174.896h-43.084v-70.724h43.084zm0 78.853v419.461h-43.084v-419.461z" fill="#fff"/><path d="m3321.362 517.132c0 121.938-85.355 164.207-160.957 164.207s-160.956-42.27-160.956-164.207v-110.556c0-121.937 85.354-164.208 160.956-164.208s160.957 42.271 160.957 164.208zm-43.084-110.556c0-75.602-49.588-122.75-117.873-122.75-68.284 0-117.872 47.148-117.872 122.75v110.556c0 75.602 49.588 122.75 117.872 122.75s117.873-47.148 117.873-122.75z" fill="#fff"/><g fill="#009fe3"><path d="m714.022 208.544c-32.542-56.393-79.384-103.236-135.791-135.804-11.678-6.733-25.539-8.572-38.574-5.071-13.038 3.487-24.146 12.009-30.879 23.688-6.735 11.678-8.561 25.552-5.072 38.59 3.487 13.022 12.008 24.119 23.673 30.864 40.95 23.625 74.947 57.622 98.584 98.57 6.748 11.691 17.854 20.203 30.878 23.702 13.024 3.473 26.898 1.661 38.577-5.085 11.678-6.749 20.201-17.856 23.689-30.88 3.487-13.024 1.675-26.896-5.085-38.574"/><path d="m392.732 765.044c65.134 0 129.095-17.144 185.5-49.709 11.694-6.746 20.204-17.854 23.691-30.865 3.486-13.035 1.674-26.909-5.085-38.577-6.733-11.69-17.843-20.214-30.866-23.713-13.022-3.475-26.898-1.646-38.577 5.098-40.945 23.637-87.385 36.064-134.663 36.064-13.491 0-26.411 5.378-35.955 14.912-9.529 9.51-14.882 22.445-14.882 35.938s5.353 26.426 14.882 35.938c9.543 9.539 22.465 14.914 35.955 14.914"/><path d="m71.44 208.544c-32.552 56.391-49.711 120.368-49.711 185.504 0 13.495 5.366 26.401 14.895 35.94 9.531 9.535 22.465 14.913 35.958 14.913 13.479 0 26.415-5.378 35.945-14.913 9.543-9.51 14.893-22.445 14.893-35.94 0-47.282 12.441-93.719 36.084-134.667 6.74-11.679 8.571-25.552 5.079-38.575-3.495-13.036-12.009-24.132-23.681-30.879-11.693-6.735-25.572-8.559-38.596-5.072-13.012 3.487-24.113 12.008-30.866 23.689"/><path d="m34.382 490.07c8.387 31.321 20.852 61.376 37.06 89.478 6.752 11.67 17.855 20.188 30.866 23.69 13.023 3.498 26.902 1.646 38.595-5.072 11.672-6.748 20.188-17.856 23.681-30.893 3.494-13.01 1.661-26.909-5.079-38.573-11.773-20.371-20.811-42.23-26.903-64.953 3.495 13.007 1.662 26.906-5.078 38.573-6.739 11.692-17.854 20.215-30.879 23.689-13.023 3.499-26.889 1.674-38.581-5.072-11.674-6.749-20.19-17.858-23.682-30.867" opacity=".5"/><path d="m655.08 656.369c22.916-22.93 42.735-48.747 58.943-76.821 6.76-11.691 8.572-25.563 5.086-38.576-3.488-13.036-12.011-24.145-23.691-30.891-11.676-6.748-25.55-8.573-38.587-5.072-13.009 3.499-24.117 11.997-30.865 23.691-11.768 20.388-26.147 39.131-42.812 55.769 9.548-9.535 22.483-14.888 35.965-14.888 13.49 0 26.425 5.351 35.962 14.888 9.523 9.534 14.877 22.47 14.877 35.965-.001 13.465-5.355 26.399-14.878 35.935" opacity=".5"/><path d="m488.756 35.687c-31.324-8.395-63.582-12.655-96.026-12.655-13.481 0-26.417 5.363-35.946 14.9-9.53 9.548-14.894 22.458-14.894 35.949 0 13.48 5.365 26.417 14.894 35.952 9.531 9.536 22.466 14.888 35.946 14.888 23.54 0 46.975 3.094 69.698 9.181-13.022-3.487-24.119-12.009-30.863-23.674-6.733-11.693-8.574-25.565-5.072-38.588 3.499-13.025 12.008-24.132 23.687-30.878 11.667-6.734 25.551-8.575 38.576-5.075" opacity=".5"/><path d="m578.232 715.335c28.091-16.205 53.921-36.038 76.836-58.967 9.523-9.536 14.899-22.47 14.899-35.938 0-13.493-5.375-26.429-14.899-35.965-9.525-9.535-22.46-14.889-35.951-14.889-13.493 0-26.417 5.354-35.954 14.889-16.624 16.637-35.392 31.043-55.769 42.812 11.676-6.744 25.552-8.572 38.588-5.098 13.009 3.499 24.119 12.022 30.865 23.688 6.747 11.692 8.574 25.566 5.073 38.602-3.474 13.012-12.021 24.12-23.688 30.866" opacity=".7"/><path d="m578.232 72.74c-28.075-16.205-58.153-28.67-89.476-37.053-13.037-3.487-26.897-1.659-38.576 5.074-11.679 6.746-20.201 17.84-23.689 30.865-3.499 13.023-1.673 26.909 5.073 38.587 6.747 11.679 17.854 20.201 30.879 23.701 22.724 6.087 44.574 15.118 64.953 26.896-11.678-6.745-20.201-17.853-23.702-30.877-3.475-13.024-1.661-26.909 5.072-38.577 6.76-11.678 17.854-20.188 30.893-23.688 13.021-3.486 26.905-1.661 38.573 5.072" opacity=".7"/><path d="m21.738 394.048c0 32.414 4.247 64.701 12.648 96.022 3.481 13.037 11.997 24.12 23.682 30.867 11.672 6.744 25.559 8.571 38.581 5.069 13.024-3.498 24.127-11.996 30.866-23.688 6.752-11.667 8.573-25.54 5.09-38.574-6.105-22.726-9.18-46.161-9.18-69.696 0 13.466-5.363 26.401-14.894 35.938-9.529 9.537-22.464 14.888-35.945 14.888-13.492 0-26.427-5.351-35.957-14.888-9.529-9.537-14.891-22.472-14.891-35.938" opacity=".7"/><path d="m392.732 23.044c-32.424 0-64.705 4.248-96.025 12.643-13.011 3.489-24.127 11.998-30.865 23.688-6.741 11.681-8.574 25.553-5.079 38.577 3.481 13.024 12.015 24.133 23.689 30.867 11.686 6.757 25.552 8.571 38.574 5.097 22.738-6.1 46.18-9.18 69.706-9.18-13.491 0-26.411-5.366-35.955-14.9-9.529-9.523-14.894-22.459-14.894-35.952 0-13.48 5.365-26.415 14.894-35.949 9.543-9.539 22.465-14.891 35.955-14.891" opacity=".2"/><path d="m71.44 579.547c16.218 28.077 36.031 53.895 58.966 76.821 9.529 9.537 22.464 14.887 35.945 14.887 13.494 0 26.41-5.348 35.957-14.887 9.531-9.534 14.896-22.468 14.896-35.938 0-13.493-5.366-26.429-14.896-35.965-16.649-16.638-31.037-35.381-42.804-55.77 6.74 11.69 8.571 25.536 5.079 38.574-3.495 13.036-12.009 24.145-23.681 30.865-11.693 6.747-25.56 8.574-38.596 5.102-13.012-3.501-24.113-12.021-30.866-23.689" opacity=".3"/><path d="m714.022 579.547c16.231-28.075 28.683-58.179 37.065-89.478 3.488-13.038 1.663-26.91-5.086-38.6-6.73-11.669-17.83-20.19-30.863-23.691-13.011-3.475-26.898-1.647-38.579 5.099-11.691 6.719-20.199 17.832-23.687 30.868-6.1 22.723-15.142 44.561-26.909 64.953 6.746-11.694 17.854-20.19 30.878-23.691 13.024-3.499 26.896-1.676 38.577 5.072 11.678 6.746 20.201 17.854 23.689 30.891 3.487 13.011 1.675 26.886-5.085 38.577" opacity=".3"/></g></svg>